<svg id="Layer_1" data-name="Layer 1" xmlns="http://www.w3.org/2000/svg" viewBox="0 0 2400 600"><defs><style>.cls-1{fill:#fff;}</style></defs><title>HeaderLogo</title><path class="cls-1" d="M325.13,544V452.29H118.78V544H50V291.79H393.91V544ZM118.78,360.58v22.93H325.13V360.58Z"/><path class="cls-1" d="M783.67,452.29H714.89L783.67,544H701.14l-68.78-91.71H508.55V544H439.76V383.51H714.89V360.58H439.76V291.79H783.67Z"/><path class="cls-1" d="M1173.44,360.58H829.53V291.79h343.91Zm0,22.93v68.78H829.53V383.51Zm0,91.71V544H829.53V475.22Z"/><path class="cls-1" d="M1494.42,544V452.29H1288.07V544h-68.78V291.79H1563.2V544ZM1288.07,360.58v22.93h206.35V360.58Z"/><path class="cls-1" d="M2097.62,383.51V544H1753.71V475.21h275.13V452.29H1753.71V291.79h343.91v68.78H1822.49v22.93Z"/><path class="cls-1" d="M2281,475.21h68.78V544H2143.47V475.21h68.78V360.58h-68.78V291.79H2281Z"/><path class="cls-1" d="M132.4,95.84v68.82h41.29V206H49.82V164.66H91.11V95.84H49.82V54.55H173.69V95.84Z"/><path class="cls-1" d="M407.67,206H366.38l-123.88-99.1V206H201.21V54.55h41.29l123.88,99.1V54.55h41.29Z"/><path class="cls-1" d="M641.66,95.84H435.2V54.55H641.66ZM517.78,206V109.61h41.29V206Z"/><path class="cls-1" d="M751.77,95.84v68.82h41.29V206H669.18V164.66h41.29V95.84H669.18V54.55H793.06V95.84Z"/><path class="cls-1" d="M985.75,206v-70.2L944.46,206H903.17l-41.29-70.2V206H820.58V54.55h41.29l61.94,107.91L985.75,54.55H1027V206Z"/><path class="cls-1" d="M1137.15,95.84v68.82h41.29V206H1054.57V164.66h41.29V95.84h-41.29V54.55h123.88V95.84Z"/><path class="cls-1" d="M1412.43,95.84H1206V54.55h206.46ZM1288.55,206V109.61h41.29V206Z"/><path class="cls-1" d="M1646.41,150.9h-41.29L1646.41,206h-49.55l-41.29-55.05h-74.33V206H1440V109.61h165.17V95.84H1440V54.55h206.46Z"/><path class="cls-1" d="M1673.94,206V54.55H1880.4V206Zm41.29-110.11v68.82h123.87V95.84Z"/><path class="cls-1" d="M2114.38,206h-41.29l-123.87-99.1V206h-41.29V54.55h41.29l123.87,99.1V54.55h41.29Z"/><path class="cls-1" d="M2348.36,95.84H2141.9V54.55h206.46ZM2141.9,206V164.66h165.17V150.9H2141.9v-41.3h206.46V206Z"/></svg>