<svg id="Layer_1" data-name="Layer 1" xmlns="http://www.w3.org/2000/svg" xmlns:xlink="http://www.w3.org/1999/xlink" viewBox="0 0 2400 2400"><defs><style>.cls-1{fill:#fff;}.cls-2,.cls-4,.cls-5,.cls-6,.cls-7{fill:none;stroke:#fff;}.cls-2{stroke-linecap:round;stroke-linejoin:round;stroke-width:19.43px;}.cls-3{fill:#8bc541;}.cls-4{stroke-width:11.09px;}.cls-5{stroke-width:8.83px;}.cls-6{stroke-width:7.06px;}.cls-7{stroke-width:6.63px;}.cls-8{fill:#67308f;}.cls-9{fill:url(#radial-gradient);}</style><radialGradient id="radial-gradient" cx="1363.64" cy="685.8" r="1.3" gradientUnits="userSpaceOnUse"><stop offset="0" stop-color="#5c308f"/><stop offset="1" stop-color="#40286b"/></radialGradient></defs><title>Artboard 1</title><path class="cls-1" d="M1208.4,2222.58l-19.65-18.1c-2.11-1.82-213.23-184.74-422.19-442.91C643.69,1609.76,546.1,1461.92,475.8,1322.16,387.53,1146.69,343,983.36,343,836.71c0-6.29,1.29-156,107.69-307.8,62.42-89.06,148.31-160.4,255.16-211.2,132.76-63.13,298.55-95.56,492.67-95.56h9.92Zm-24.73-1974c-333.82,2.52-578.54,104-712.3,293.91C369,687.71,368.13,835.25,368.13,836.73c0,323.82,226.79,672.94,417.69,908.81,169.24,209.11,337.81,368.34,397.86,420.94Z"/><path class="cls-1" d="M1090.62,1563.67l-.58,0c-311.65-23.38-460.66-172.86-530.78-294.15-76-131.41-78.06-255.31-78.12-260.52a7.67,7.67,0,0,1,2.47-5.71,7.53,7.53,0,0,1,5.89-2c248,23.19,424.46,102.1,524.51,234.54,114.12,151.06,84.43,319.9,84.11,321.59A7.65,7.65,0,0,1,1090.62,1563.67ZM496.85,1017.36c1.91,30.28,13,136.38,76,245.07,67.79,116.92,211.44,260.85,511.22,285.4,4-32.36,14.92-174.34-82.41-303C905.44,1117.63,735.63,1041.13,496.85,1017.36Z"/><path class="cls-1" d="M811.15,1489c-4.53,0-9.32-.19-15.06-.6a7.68,7.68,0,0,1-2.87-.79c-69.1-34.47-128.45-80.45-176.39-136.65a7.78,7.78,0,0,1-1.42-2.52,206.54,206.54,0,0,1,186.1-272.36,7.85,7.85,0,0,1,3.45.64c86.7,38.47,155.91,90.52,205.69,154.71a7.62,7.62,0,0,1,1.4,2.92,207.47,207.47,0,0,1,5.68,48.08C1017.73,1396.37,925.06,1489,811.15,1489Zm-12.46-15.76c4.7.31,8.69.46,12.46.46,105.48,0,191.28-85.81,191.28-191.29a192.21,192.21,0,0,0-4.89-42.92c-47.82-61.17-114.13-111-197.12-148a191.26,191.26,0,0,0-171,250.71C675.55,1395.95,732.49,1440,798.69,1473.28Z"/><path class="cls-1" d="M811.15,1439.5c-86.59,0-157-70.45-157-157s70.45-157,157-157,157,70.45,157,157S897.74,1439.5,811.15,1439.5Zm0-274.59A117.55,117.55,0,1,0,928.7,1282.46,117.69,117.69,0,0,0,811.15,1164.91Z"/><path class="cls-1" d="M811.15,1188.42a94,94,0,1,0,94,94A94.15,94.15,0,0,0,811.15,1188.42Zm54,129.82-19.65,7-11.82,17.18-20-5.94-19.66,7-12.69-16.55-20-5.92-.55-20.85-12.69-16.55,11.82-17.16-.55-20.85,19.66-7,11.82-17.19,20,5.92,19.66-7,12.69,16.55,20,5.92.54,20.85,12.69,16.54-11.81,17.18Z"/><path class="cls-2" d="M1195.16,2242.42s857.68-761,857.68-1427.49c0,0-6.36-631.68-857.68-631.68Z"/><path class="cls-3" d="M1192.51,183.24V2242.42s857.68-761,857.68-1427.49C2050.19,814.92,2047.36,183.24,1192.51,183.24Zm715.76,855.36c-12.11,108.45-90.67,479.25-599.6,517.42,0,0-85.53-460.75,555.83-542.06,31.92-5.83,76.31-17,106.21-36.9C1970.71,977.06,1951.86,1010.82,1908.27,1038.6Z"/><circle class="cls-1" cx="1754.92" cy="1137.93" r="41.2"/><path class="cls-1" d="M1816.24,1194a15.42,15.42,0,1,1-15.41-15.42A15.42,15.42,0,0,1,1816.24,1194Z"/><path class="cls-1" d="M850.71,1262.69a15.42,15.42,0,1,1-15.41-15.42A15.42,15.42,0,0,1,850.71,1262.69Z"/><path class="cls-1" d="M573.35,1476.68a7.62,7.62,0,0,1-3.35-.78l-203.12-98.15c-2.63-1.28-6.26-4-6.26-6.88V1127.33c0-2.62,3.31-5.06,5.52-6.46l31.15-19.13a8.25,8.25,0,0,1,11.05,2.36c2.27,3.58.66,8.3-2.91,10.56l-27.15,16.88v234.55l197.64,96.07c3.8,1.85,5.77,6.43,3.92,10.23A7.09,7.09,0,0,1,573.35,1476.68Z"/><path class="cls-1" d="M369.45,1316.08c0,2.94-2.33,4.67-5.27,4.67h-26c-2.94,0-5.8-1.73-5.8-4.67V1180a6.26,6.26,0,0,1,5.8-5.89h26c2.94,0,5.27,3,5.27,5.89Zm-21.19-2.4h17.66V1186.51H348.25Z"/><path class="cls-1" d="M823.37,1103.1c-4.23,0-10.6-3.42-10.6-7.65V767.56l-47.39-54.63c-1.27-1.4-.3-3.22-.3-5.11V567.55c0-1.64-1.13-3.23-.16-4.55l47.85-66.83V284.48c0-4.22,6.37-7.65,10.6-7.65s10.6,3.42,10.6,7.65V498.7c0,1.64-1.52,3.24-2.5,4.56L781,570.08V704.89l50,54.63c1.26,1.4,3,3.22,3,5.11v330.82C834,1099.67,827.59,1103.1,823.37,1103.1Z"/><path class="cls-4" d="M1085.73,1557.41s89.81-483.8-603.48-548.64C482.26,1008.78,487.22,1512.52,1085.73,1557.41Z"/><path class="cls-5" d="M1191.51,1997.26s-104.63,16.48-116.54-85.42-21.87-187.52-21.87-187.52-4.65-30,39-30H1189"/><line class="cls-6" x1="1077.7" y1="1937.16" x2="1188.97" y2="1937.16"/><line class="cls-6" x1="1077.7" y1="1887.7" x2="1188.97" y2="1887.7"/><line class="cls-6" x1="1074.17" y1="1843.55" x2="1188.97" y2="1843.55"/><line class="cls-6" x1="1058.27" y1="1797.63" x2="1188.97" y2="1797.63"/><line class="cls-6" x1="1054.74" y1="1749.94" x2="1188.97" y2="1749.94"/><path class="cls-7" d="M580.23,1472.38l230.91,124.88s72.83,32.84,92,142.28,32.83,200,32.83,200"/><path class="cls-1" d="M487.92,1011.83l38.3,5.59,33.61,2.51c-5.53-6.18-10.15-10.54-10.15-10.54s-94.28-8.27-145.68-42.54c0,0,26.53,47.58,89.51,76.23Z"/><circle class="cls-1" cx="1140.53" cy="309.46" r="23.23"/><polygon class="cls-8" points="1133.26 322.83 1125.98 308.7 1133.26 294.57 1147.8 294.57 1155.08 308.7 1147.8 322.83 1133.26 322.83"/><circle class="cls-1" cx="1140.53" cy="558.35" r="23.23" transform="translate(-62.35 151.37) rotate(-7.39)"/><polygon class="cls-8" points="1153.96 563.94 1142.12 572.81 1128.42 567.25 1126.55 552.82 1138.38 543.96 1152.09 549.51 1153.96 563.94"/><circle class="cls-1" cx="1140.53" cy="807.24" r="23.23" transform="matrix(0.82, -0.57, 0.57, 0.82, -256.72, 795.15)"/><polygon class="cls-8" points="1126.04 808.45 1132.46 795.13 1147.18 793.76 1155.48 805.71 1149.06 819.03 1134.34 820.4 1126.04 808.45"/><circle class="cls-1" cx="1140.53" cy="1056.13" r="23.22"/><polygon class="cls-8" points="1133.26 1068.17 1125.98 1056.69 1133.26 1045.21 1147.8 1045.21 1155.08 1056.69 1147.8 1068.17 1133.26 1068.17"/><path class="cls-1" d="M1163.17,1299.84a23.23,23.23,0,1,1-27.82-17.46A23.22,23.22,0,0,1,1163.17,1299.84Z"/><polygon class="cls-8" points="1136.25 1318.92 1126.29 1307.99 1130.51 1293.82 1144.69 1290.58 1154.65 1301.51 1150.43 1315.68 1136.25 1318.92"/><circle class="cls-1" cx="1140.53" cy="1553.91" r="23.22" transform="matrix(0.64, -0.77, 0.77, 0.64, -782.86, 1427.33)"/><polygon class="cls-8" points="1126.86 1558.88 1129.57 1544.34 1143.42 1539.17 1154.56 1548.53 1151.84 1563.06 1137.99 1568.24 1126.86 1558.88"/><path class="cls-9" d="M1363,686.68c1.17,0,3.66-1.76,1.37-1.76-1.17,0-3.66,1.76-1.37,1.76Z"/></svg>